<?xml version="1.0" standalone="no"?>
<!DOCTYPE svg PUBLIC "-//W3C//DTD SVG 20010904//EN"
 "http://www.w3.org/TR/2001/REC-SVG-20010904/DTD/svg10.dtd">
<svg version="1.0" xmlns="http://www.w3.org/2000/svg"
 width="512.000000pt" height="512.000000pt" viewBox="0 0 512.000000 512.000000"
 preserveAspectRatio="xMidYMid meet">

<g transform="translate(0.000000,512.000000) scale(0.100000,-0.100000)"
fill="#000000" stroke="none">
<path d="M2420 3834 c-208 -27 -407 -101 -580 -217 -96 -64 -273 -241 -337
-337 -95 -142 -163 -302 -199 -470 -26 -119 -26 -381 0 -500 56 -259 167 -462
355 -651 185 -186 394 -300 651 -355 119 -26 381 -26 500 0 259 56 462 167
651 355 186 185 300 394 355 651 26 119 26 381 0 500 -56 259 -167 463 -355
651 -185 185 -379 293 -631 350 -83 19 -331 33 -410 23z m330 -663 c93 -29
185 -86 260 -161 75 -76 121 -148 158 -252 23 -64 26 -88 26 -198 0 -110 -3
-134 -26 -198 -37 -104 -83 -176 -158 -252 -76 -76 -167 -132 -265 -163 -57
-18 -93 -22 -190 -22 -104 1 -130 5 -193 27 -104 37 -176 83 -252 158 -229
230 -253 573 -57 837 83 111 231 207 369 238 86 20 243 13 328 -14z"/>
</g>
</svg>
